<svg width="29.121" height="29.121" xmlns="http://www.w3.org/2000/svg">

 <g>
  <title>background</title>
  <rect fill="none" id="canvas_background" height="602" width="802" y="-1" x="-1"/>
 </g>
 <g>
  <title>Layer 1</title>
  <g id="svg_1">
   <path id="svg_2" fill="#ff4757" d="m21.706,6.146c1.116,0 2.02,-0.898 2.02,-2.016l0,-2.11c0,-1.119 -0.903,-2.02 -2.02,-2.02s-2.019,0.9 -2.019,2.02l0,2.111c0.001,1.117 0.903,2.015 2.019,2.015z"/>
   <path id="svg_3" fill="#ff4757" d="m28.882,3.494l-4.066,0l0,1.027c0,1.695 -1.377,3.076 -3.075,3.076c-1.7,0 -3.074,-1.381 -3.074,-3.076l0,-1.027l-8.205,0l0,1.027c0,1.695 -1.379,3.076 -3.076,3.076s-3.075,-1.38 -3.075,-3.076l0,-1.027l-4.103,-0.051l0,25.678l2.052,0l24.604,0l2.049,-0.006l-0.031,-25.621zm-2.02,23.582l-24.602,0l0,-16.404l24.604,0l0,16.404l-0.002,0z"/>
   <path id="svg_4" fill="#ff4757" d="m7.354,6.146c1.116,0 2.021,-0.898 2.021,-2.016l0,-2.11c0,-1.12 -0.905,-2.02 -2.021,-2.02s-2.018,0.9 -2.018,2.02l0,2.111c0,1.117 0.901,2.015 2.018,2.015z"/>
   <rect id="svg_5" fill="#ff4757" height="2.852" width="3.231" y="12.873" x="10.468"/>
   <rect id="svg_6" fill="#ff4757" height="2.852" width="3.234" y="12.873" x="15.692"/>
   <rect id="svg_7" fill="#ff4757" height="2.852" width="3.231" y="12.873" x="20.537"/>
   <rect id="svg_8" fill="#ff4757" height="2.85" width="3.231" y="17.609" x="10.468"/>
   <rect id="svg_9" fill="#ff4757" height="2.85" width="3.234" y="17.609" x="15.692"/>
   <rect id="svg_10" fill="#ff4757" height="2.85" width="3.231" y="17.609" x="20.537"/>
   <rect id="svg_11" fill="#ff4757" height="2.85" width="3.231" y="22.439" x="10.468"/>
   <rect id="svg_12" fill="#ff4757" height="2.85" width="3.229" y="17.609" x="5.336"/>
   <rect id="svg_13" fill="#ff4757" height="2.85" width="3.229" y="22.439" x="5.336"/>
   <rect id="svg_14" fill="#ff4757" height="2.85" width="3.234" y="22.439" x="15.692"/>
   <rect id="svg_15" fill="#ff4757" height="2.85" width="3.231" y="22.439" x="20.537"/>
  </g>
  <g id="svg_16"/>
  <g id="svg_17"/>
  <g id="svg_18"/>
  <g id="svg_19"/>
  <g id="svg_20"/>
  <g id="svg_21"/>
  <g id="svg_22"/>
  <g id="svg_23"/>
  <g id="svg_24"/>
  <g id="svg_25"/>
  <g id="svg_26"/>
  <g id="svg_27"/>
  <g id="svg_28"/>
  <g id="svg_29"/>
  <g id="svg_30"/>
 </g>
</svg>