<svg width="489.164" height="489.164" xmlns="http://www.w3.org/2000/svg">

 <g>
  <title>background</title>
  <rect fill="none" id="canvas_background" height="602" width="802" y="-1" x="-1"/>
 </g>
 <g>
  <title>Layer 1</title>
  <path fill="#f0932b" stroke="#ffffff" id="svg_1" d="m159.582,75.459l0,285.32c-14.274,-10.374 -32.573,-16.616 -52.5,-16.616c-45.491,0 -82.5,32.523 -82.5,72.5s37.009,72.5 82.5,72.5s82.5,-32.523 82.5,-72.5l0,-247.721l245,-60.615l0,184.416c-14.274,-10.374 -32.573,-16.616 -52.5,-16.616c-45.491,0 -82.5,32.523 -82.5,72.5s37.009,72.5 82.5,72.5s82.5,-32.523 82.5,-72.5l0,-348.627l-305,75.459z"/>
  <g id="svg_2"/>
  <g id="svg_3"/>
  <g id="svg_4"/>
  <g id="svg_5"/>
  <g id="svg_6"/>
  <g id="svg_7"/>
  <g id="svg_8"/>
  <g id="svg_9"/>
  <g id="svg_10"/>
  <g id="svg_11"/>
  <g id="svg_12"/>
  <g id="svg_13"/>
  <g id="svg_14"/>
  <g id="svg_15"/>
  <g id="svg_16"/>
 </g>
</svg>